<svg width="72" height="20" viewBox="0 0 72 20" fill="none" xmlns="http://www.w3.org/2000/svg">
<g clip-path="url(#clip0_1410_226)">
<path d="M15.5543 2.5577C15.9321 2.25561 16.4187 0.879841 15.8628 0.30705C15.6867 0.125719 15.3923 0.0730888 14.9815 0.153724C14.6005 0.228402 14.3813 0.378749 14.2325 0.614102C13.9933 0.992453 13.7738 2.13386 14.1444 2.55789C14.5054 2.97061 15.3139 2.74975 15.5543 2.5577V2.5577ZM10.1786 0.30705C9.90794 2.34578 9.60306 4.34479 9.29731 6.3428C7.33438 6.36683 5.3302 6.45521 3.4369 6.29156C3.79448 4.33684 4.05095 2.26455 4.40631 0.30705H2.29127C1.53418 5.29335 0.845366 10.3593 0 15.2431H2.15918C2.49777 12.738 2.81464 10.2071 3.26067 7.82622C5.10162 7.77358 7.30803 7.68183 9.07712 7.87746C8.71235 10.3527 8.27162 12.7392 7.93149 15.2431H10.0907C10.7846 10.1831 11.5154 5.16643 12.3821 0.30705H10.1786V0.30705ZM40.7146 4.60377C39.0347 3.81609 37.7138 5.14717 37.1015 6.39404C37.2404 5.83932 37.2976 5.18967 37.4101 4.60377H35.7357C35.3262 8.28898 34.723 11.7488 34.1495 15.2431H36.0443C36.3098 13.169 36.4245 10.373 37.0135 8.38888C37.4844 6.80338 38.7166 5.45263 40.4946 6.18947C40.5192 5.60457 40.6635 5.15809 40.7146 4.60377V4.60377ZM41.772 12.7368C41.5973 12.2129 41.5523 11.3482 41.5959 10.6906C41.6938 9.21271 42.1578 7.41331 42.8738 6.59861C43.8619 5.47428 45.8125 5.66038 47.3684 6.29176C47.4165 5.68302 47.5219 5.14002 47.5887 4.55273C45.0371 4.06892 42.6158 4.37001 41.3319 5.93386C40.0749 7.46475 39.2513 10.9833 39.8335 13.1972C40.5151 15.7879 43.5719 15.9287 46.0465 14.9364C46.156 14.4157 46.214 13.8352 46.3109 13.2997C44.9584 14.115 42.373 14.5388 41.772 12.7368V12.7368ZM63.0548 4.65482C61.3801 3.68282 59.9859 5.3138 59.4417 6.29156C59.5967 5.78987 59.6056 5.11797 59.75 4.60357H58.0757C57.6242 8.2568 57.0801 11.8024 56.4455 15.2429H58.3843C58.3965 13.8328 58.6351 12.7897 58.8247 11.407C59.2299 8.45402 59.8249 5.21589 62.7908 6.18928C62.8888 5.68997 62.9297 5.12353 63.0548 4.65482ZM13.6155 4.60377C13.5642 4.61231 13.5676 4.68461 13.5714 4.7571C13.1539 8.38153 12.5888 11.835 11.9852 15.2429H13.8798C14.3351 11.594 14.8566 8.02244 15.5102 4.60357L13.6155 4.60377V4.60377ZM30.2715 4.39921C28.9024 4.52175 27.7451 4.97895 26.9227 5.98491C25.9139 7.21847 25.0972 9.94598 25.3365 12.43C25.678 15.9736 29.4788 15.8463 32.5188 14.9875C32.5706 14.3654 32.7003 13.8338 32.7831 13.2483C31.5309 13.7923 29.3565 14.5515 28.0682 13.6066C27.0957 12.8926 27.09 11.0854 27.4072 9.5144C29.4504 9.43893 31.574 9.45323 33.6201 9.5144C33.7498 8.40099 34.1212 7.18709 33.7963 6.08739C33.3679 4.63555 31.8332 4.25938 30.2715 4.39921ZM32.0781 8.28659H27.6274C27.7684 7.09891 28.6889 5.79345 30.1392 5.7291C31.5042 5.66852 32.4815 6.31082 32.0781 8.28659V8.28659ZM23.0892 4.60377C21.4856 3.90447 19.5312 4.73923 18.6838 5.53327C18.6868 5.56822 18.6636 5.57299 18.6386 5.57557C18.653 5.56147 18.6687 5.54737 18.6838 5.53327C18.6836 5.53034 18.6833 5.52742 18.6829 5.52453C18.6971 5.18312 18.8006 4.94518 18.815 4.60377H17.1847C16.5053 9.85084 15.6996 14.9511 14.8494 20H16.7441C17.0184 18.0338 17.1994 15.9593 17.5814 14.1178C18.0141 16.0546 20.8395 15.6846 22.0319 14.9362C24.4917 13.3919 26.3891 6.0425 23.0892 4.60377V4.60377ZM21.5911 13.2483C20.5774 14.4945 18.0853 14.4759 17.8897 12.3785C17.8047 11.4661 18.0974 10.5094 18.2425 9.56544C18.3888 8.60993 18.4944 7.69315 18.6388 6.85442C19.6373 5.43913 22.5713 5.26812 22.869 7.62165C23.1272 9.66495 22.4305 12.2161 21.5911 13.2483V13.2483ZM70.1048 0.000198501C69.9424 1.65303 69.7253 3.2425 69.4441 4.7571C64.7963 3.04926 61.9461 7.01887 61.9974 11.9184C62.0075 12.8659 62.148 13.8056 62.6582 14.4759C63.5383 15.6306 66.0571 15.9072 67.3292 14.936C67.5752 14.7482 67.8269 14.4062 67.9899 14.169C68.1126 13.9905 68.3071 13.5227 68.3426 13.6574C68.2755 14.1764 68.1756 14.6574 68.1665 15.2429H69.885C70.2164 9.7279 71.2402 5.01748 72 0H70.105V0.000198501H70.1048ZM65.8749 14.0665C64.5994 14.0983 63.9652 13.1819 63.9359 11.6626C63.8851 9.00159 64.8906 6.04528 66.9324 5.78014C67.883 5.6568 68.5713 5.91341 69.2678 6.18947C68.6283 9.17855 68.8591 13.9923 65.8749 14.0665V14.0665ZM49.5272 4.60377C49.434 5.21152 49.2908 5.76147 49.1748 6.3428C50.2929 6.01728 53.7744 5.01946 54.1099 6.75194C54.2213 7.32751 54.0292 7.93903 53.8896 8.38888C50.7415 8.0427 48.1754 8.64985 47.5003 11.2532C47.0483 12.997 47.5509 14.713 48.5138 15.1921C50.3683 16.1144 52.624 15.0578 53.4049 13.6066C53.3238 14.1088 53.2469 14.6167 53.2729 15.2431H54.9031C54.9206 13.4306 55.1478 11.9635 55.3878 10.3325C55.5924 8.94359 55.9776 7.56862 55.9167 6.3428C55.7764 3.53545 51.7699 4.5285 49.5272 4.60377V4.60377ZM52.6117 13.197C51.6352 14.3067 48.8944 14.6218 49.1748 11.9694C49.4075 9.76643 51.4739 9.29831 53.713 9.61629C53.5467 10.8214 53.3557 12.3515 52.6117 13.197V13.197Z" fill="white"/>
</g>
<defs>
<clipPath id="clip0_1410_226">
<rect width="72" height="20" fill="white"/>
</clipPath>
</defs>
</svg>
